<svg viewBox="0 0 356.12052 88.09069565754271" height="88.09069565754271" width="356.12052" data-background-color="#c6c1ea" preserveAspectRatio="xMidYMid meet" id="tight-bounds" xmlns="http://www.w3.org/2000/svg" xmlns:xlink="http://www.w3.org/1999/xlink"><g><svg viewBox="0 0 356.12052 88.09069565754271" height="88.09069565754271" width="356.12052"><g><svg viewBox="0 0 356.12052 88.09069565754271" height="88.09069565754271" width="356.12052"><g><path d="M0 88.091v-88.091h356.121v88.091z" fill="#621e72" stroke="transparent" stroke-width="0" rx="0%" data-fill-palette-color="tertiary"></path><path d="M3.283 84.807v-81.524h349.554v81.524z" fill="#c6c1ea" stroke="transparent" stroke-width="0" rx="0%" data-fill-palette-color="quaternary"></path><path d="M9.85 78.241v-68.391h336.421v68.391z" fill="#21e72" stroke="transparent" stroke-width="0" data-fill-palette-color="tertiary"></path></g><g transform="matrix(1,0,0,1,19.69974,19.69974)" id="textblocktransform"><svg viewBox="0 0 316.72104 48.691215657542706" height="48.691215657542706" width="316.72104" id="textblock"><g><svg viewBox="0 0 316.72104 48.691215657542706" height="48.691215657542706" width="316.72104"><g transform="matrix(1,0,0,1,0,0)"><svg width="316.72104" viewBox="2.200000047683716 -35.86000061035156 237.24000549316406 36.470001220703125" height="48.691215657542706" data-palette-color="#c6c1ea"><path d="M32.28-14.43L32.28-2.39Q31.69-1.98 30.19-1.26 28.69-0.54 26.05 0.02 23.41 0.59 19.43 0.59L19.43 0.59Q14.09 0.59 10.22-1.18 6.35-2.95 4.27-6.92 2.2-10.89 2.2-17.43L2.2-17.43Q2.2-26.15 6.67-30.87 11.13-35.6 19.12-35.6L19.12-35.6Q22.92-35.6 25.2-34.86 27.47-34.13 28.64-33.15 29.81-32.18 30.27-31.45L30.27-31.45Q30.44-31.18 30.52-30.97 30.59-30.76 30.62-30.32L30.62-30.32Q30.69-29.74 30.65-28.61 30.62-27.49 30.47-26.64L30.47-26.64Q30.37-26.1 30.15-25.93L30.15-25.93Q30.05-25.83 29.81-25.76 29.57-25.68 29.08-25.68L29.08-25.68Q28.3-25.68 27.26-25.74 26.22-25.81 25.73-25.88L25.73-25.88Q25.15-25.98 24.89-26.16 24.63-26.34 24.34-26.73L24.34-26.73Q24.05-27.12 23.54-27.65 23.02-28.17 21.98-28.59 20.95-29 19.12-29L19.12-29Q15.09-29 12.79-26.09 10.5-23.17 10.5-17.7L10.5-17.7Q10.5-11.96 12.88-8.98 15.26-6.01 19.73-6.01L19.73-6.01Q21.97-6.01 23.03-6.34 24.1-6.67 24.39-6.84L24.39-6.84 24.39-14.43Q24.39-15.14 24.63-15.5L24.63-15.5Q25.73-17.11 27.71-18.9L27.71-18.9Q28.08-19.19 28.34-19.19L28.34-19.19Q28.64-19.19 28.96-18.9L28.96-18.9Q30.03-17.97 30.76-17.13 31.49-16.28 32.03-15.5L32.03-15.5Q32.28-15.11 32.28-14.43L32.28-14.43ZM57.18 0L44.89 0Q42.38 0 41.07-0.63 39.77-1.27 39.32-2.71 38.86-4.15 38.86-6.54L38.86-6.54 38.86-28.47Q38.86-30.91 39.32-32.34 39.77-33.76 41.07-34.39 42.38-35.01 44.89-35.01L44.89-35.01 56.37-35.01Q56.96-35.01 57.25-34.81L57.25-34.81Q57.88-34.38 58.57-33.76 59.25-33.15 60.01-32.3L60.01-32.3Q60.25-31.98 60.25-31.79L60.25-31.79Q60.25-31.57 60.01-31.3L60.01-31.3Q59.25-30.44 58.57-29.83 57.88-29.22 57.25-28.78L57.25-28.78Q56.91-28.59 56.37-28.59L56.37-28.59 49.53-28.59Q47.92-28.59 47.34-27.91 46.75-27.22 46.75-25.56L46.75-25.56 46.75-20.83 55.52-20.83Q56.1-20.83 56.39-20.63L56.39-20.63Q57.03-20.19 57.71-19.58 58.4-18.97 59.15-18.12L59.15-18.12Q59.4-17.8 59.4-17.6L59.4-17.6Q59.4-17.38 59.15-17.11L59.15-17.11Q58.4-16.26 57.71-15.65 57.03-15.04 56.39-14.6L56.39-14.6Q56.05-14.4 55.52-14.4L55.52-14.4 46.75-14.4 46.75-9.47Q46.75-7.84 47.34-7.13 47.92-6.42 49.53-6.42L49.53-6.42 57.18-6.42Q57.76-6.42 58.05-6.23L58.05-6.23Q58.69-5.79 59.37-5.18 60.06-4.57 60.81-3.71L60.81-3.71Q61.06-3.39 61.06-3.2L61.06-3.2Q61.06-2.98 60.81-2.71L60.81-2.71Q60.06-1.86 59.37-1.25 58.69-0.63 58.05-0.2L58.05-0.2Q57.71 0 57.18 0L57.18 0ZM85.81-14.01L86.01-14.01Q86.35-15.33 86.75-16.61 87.15-17.9 87.74-19.48L87.74-19.48Q88.25-20.9 88.98-22.74 89.72-24.58 90.53-26.49 91.35-28.39 92.13-30.03 92.91-31.67 93.55-32.64L93.55-32.64Q94.33-33.84 95.25-34.42 96.16-35.01 97.94-35.01L97.94-35.01 101.14-35.01Q102.41-35.01 103.28-34.63 104.15-34.25 104.51-32.84L104.51-32.84Q104.78-31.79 105.02-29.76 105.27-27.73 105.44-24.15 105.61-20.56 105.71-14.93 105.81-9.3 105.81-1.03L105.81-1.03Q105.81-0.59 105.51-0.29 105.22 0 104.8 0L104.8 0 99.24 0Q98.82 0 98.53-0.29 98.24-0.59 98.24-1.05L98.24-1.05Q98.24-7.5 98.24-11.99 98.24-16.48 98.21-19.43 98.19-22.39 98.15-24.13 98.12-25.88 98.04-26.83L98.04-26.83 97.9-26.83Q96.6-23.85 95.14-20.2 93.67-16.55 92.28-12.68 90.89-8.81 89.79-5.13L89.79-5.13Q89.47-4.03 89-3.6 88.52-3.17 86.84-3.17L86.84-3.17 84.03-3.17Q82.59-3.17 82.11-3.54 81.64-3.91 81.29-5.13L81.29-5.13Q80.49-7.91 79.51-11.01 78.54-14.11 77.5-17.1 76.46-20.09 75.5-22.62 74.53-25.15 73.77-26.83L73.77-26.83 73.63-26.83Q73.43-23.95 73.29-19.82 73.14-15.7 73.05-10.86 72.97-6.03 72.94-1L72.94-1Q72.94-0.56 72.65-0.28 72.36 0 71.94 0L71.94 0 66.94 0Q66.52 0 66.23-0.29 65.94-0.59 65.94-1.05L65.94-1.05Q65.96-14.06 66.46-21.83 66.96-29.59 67.55-32.23L67.55-32.23Q67.94-33.96 68.93-34.48 69.92-35.01 71.19-35.01L71.19-35.01 75.14-35.01Q76.48-35.01 77.11-34.53 77.73-34.06 78.63-32.69L78.63-32.69Q79.17-31.88 79.91-30.27 80.66-28.66 81.46-26.7 82.27-24.73 82.99-22.81 83.71-20.9 84.17-19.48L84.17-19.48Q84.66-18.04 85.08-16.69 85.49-15.33 85.81-14.01L85.81-14.01ZM131.68 0L119.4 0Q116.89 0 115.58-0.63 114.27-1.27 113.82-2.71 113.37-4.15 113.37-6.54L113.37-6.54 113.37-28.47Q113.37-30.91 113.82-32.34 114.27-33.76 115.58-34.39 116.89-35.01 119.4-35.01L119.4-35.01 130.88-35.01Q131.46-35.01 131.76-34.81L131.76-34.81Q132.39-34.38 133.07-33.76 133.76-33.15 134.51-32.3L134.51-32.3Q134.76-31.98 134.76-31.79L134.76-31.79Q134.76-31.57 134.51-31.3L134.51-31.3Q133.76-30.44 133.07-29.83 132.39-29.22 131.76-28.78L131.76-28.78Q131.41-28.59 130.88-28.59L130.88-28.59 124.04-28.59Q122.43-28.59 121.84-27.91 121.26-27.22 121.26-25.56L121.26-25.56 121.26-20.83 130.02-20.83Q130.61-20.83 130.9-20.63L130.9-20.63Q131.54-20.19 132.22-19.58 132.9-18.97 133.66-18.12L133.66-18.12Q133.9-17.8 133.9-17.6L133.9-17.6Q133.9-17.38 133.66-17.11L133.66-17.11Q132.9-16.26 132.22-15.65 131.54-15.04 130.9-14.6L130.9-14.6Q130.56-14.4 130.02-14.4L130.02-14.4 121.26-14.4 121.26-9.47Q121.26-7.84 121.84-7.13 122.43-6.42 124.04-6.42L124.04-6.42 131.68-6.42Q132.27-6.42 132.56-6.23L132.56-6.23Q133.2-5.79 133.88-5.18 134.56-4.57 135.32-3.71L135.32-3.71Q135.56-3.39 135.56-3.2L135.56-3.2Q135.56-2.98 135.32-2.71L135.32-2.71Q134.56-1.86 133.88-1.25 133.2-0.63 132.56-0.2L132.56-0.2Q132.22 0 131.68 0L131.68 0ZM155.39-5.98L155.39-5.98Q157.17-5.98 158.18-6.35 159.19-6.71 159.76-7.25 160.32-7.79 160.73-8.33L160.73-8.33Q161.12-8.81 161.38-9.06 161.64-9.3 162.1-9.4L162.1-9.4Q162.49-9.52 163.36-9.56 164.22-9.59 165.09-9.59 165.96-9.59 166.3-9.55L166.3-9.55Q166.81-9.52 167.01-9.35L167.01-9.35Q167.2-9.18 167.25-8.62L167.25-8.62Q167.32-7.84 167.34-6.76 167.35-5.69 167.3-4.91L167.3-4.91Q167.28-4.66 167.21-4.49 167.15-4.32 166.96-3.98L166.96-3.98Q166.71-3.59 166.01-2.84 165.3-2.1 163.93-1.31 162.56-0.51 160.4 0.05 158.24 0.61 155.09 0.61L155.09 0.61Q151.72 0.61 148.79-0.26 145.86-1.12 143.65-3.17 141.45-5.22 140.21-8.72 138.98-12.21 138.98-17.43L138.98-17.43Q138.98-23.24 140.99-27.31 143.01-31.37 146.72-33.5 150.43-35.62 155.51-35.62L155.51-35.62Q159.07-35.62 161.23-34.89 163.39-34.16 164.52-33.17 165.64-32.18 166.1-31.45L166.1-31.45Q166.27-31.18 166.35-30.97 166.42-30.76 166.45-30.32L166.45-30.32Q166.52-29.74 166.48-28.61 166.45-27.49 166.3-26.64L166.3-26.64Q166.2-26.1 165.98-25.93L165.98-25.93Q165.88-25.83 165.64-25.76 165.4-25.68 164.91-25.68L164.91-25.68Q164.13-25.68 163.15-25.74 162.17-25.81 161.68-25.88L161.68-25.88Q161.1-25.98 160.83-26.16 160.56-26.34 160.29-26.73L160.29-26.73Q159.85-27.37 158.78-28.2 157.7-29.03 155.24-29.03L155.24-29.03Q151.77-29.03 149.53-26.35 147.28-23.68 147.28-17.7L147.28-17.7Q147.28-11.74 149.64-8.86 151.99-5.98 155.39-5.98ZM195.1-21.04L195.1-31.1Q195.1-31.81 195.35-32.18L195.35-32.18Q196.45-33.79 198.43-35.57L198.43-35.57Q198.79-35.86 199.06-35.86L199.06-35.86Q199.35-35.86 199.67-35.57L199.67-35.57Q200.74-34.64 201.48-33.8 202.21-32.96 202.75-32.18L202.75-32.18Q202.99-31.79 202.99-31.1L202.99-31.1 202.99-1.29Q202.99-0.56 202.69-0.28 202.38 0 201.65 0L201.65 0 196.45 0Q195.72 0 195.41-0.28 195.1-0.56 195.1-1.29L195.1-1.29 195.1-14.26 180.6-14.26 180.6-1.29Q180.6-0.56 180.3-0.28 179.99 0 179.26 0L179.26 0 174.06 0Q173.33 0 173.02-0.28 172.72-0.56 172.72-1.29L172.72-1.29 172.72-33.72Q172.72-34.45 173.02-34.73 173.33-35.01 174.06-35.01L174.06-35.01 179.26-35.01Q179.99-35.01 180.3-34.73 180.6-34.45 180.6-33.72L180.6-33.72 180.6-21.04 195.1-21.04ZM224.96 0.59L224.96 0.59Q220.37 0.59 217.14-0.61 213.9-1.81 212.2-4.81 210.51-7.81 210.51-13.23L210.51-13.23 210.51-31.1Q210.51-31.81 210.75-32.18L210.75-32.18Q211.85-33.79 213.83-35.57L213.83-35.57Q214.19-35.86 214.46-35.86L214.46-35.86Q214.76-35.86 215.07-35.57L215.07-35.57Q216.15-34.64 216.88-33.8 217.61-32.96 218.15-32.18L218.15-32.18Q218.39-31.79 218.39-31.1L218.39-31.1 218.39-14.45Q218.39-10.96 219.14-9.14 219.88-7.32 221.35-6.67 222.81-6.01 224.96-6.01L224.96-6.01Q227.16-6.01 228.62-6.67 230.09-7.32 230.82-9.14 231.55-10.96 231.55-14.45L231.55-14.45 231.55-31.1Q231.55-31.81 231.8-32.18L231.8-32.18Q232.9-33.79 234.87-35.57L234.87-35.57Q235.24-35.86 235.51-35.86L235.51-35.86Q235.8-35.86 236.12-35.57L236.12-35.57Q237.19-34.64 237.92-33.8 238.66-32.96 239.19-32.18L239.19-32.18Q239.44-31.79 239.44-31.1L239.44-31.1 239.44-13.23Q239.44-7.81 237.58-4.81 235.73-1.81 232.47-0.61 229.21 0.59 224.96 0.59Z" opacity="1" transform="matrix(1,0,0,1,0,0)" fill="#c6c1ea" class="wordmark-text-0" data-fill-palette-color="quaternary" id="text-0"></path></svg></g></svg></g></svg></g></svg></g><g></g></svg></g><defs></defs></svg>